<svg xmlns="http://www.w3.org/2000/svg" xmlns:svg="http://www.w3.org/2000/svg" id="svg7384" width="16" height="16" version="1.1"><title id="title9167">Gnome Symbolic Icon Theme</title><metadata id="metadata90"/><path style="color:#000;font-style:normal;font-variant:normal;font-weight:400;font-stretch:normal;font-size:medium;line-height:normal;font-family:'Bitstream Vera Sans';-inkscape-font-specification:'Bitstream Vera Sans';text-indent:0;text-align:start;text-decoration:none;text-decoration-line:none;letter-spacing:normal;word-spacing:normal;text-transform:none;writing-mode:lr-tb;direction:ltr;text-anchor:start;display:inline;overflow:visible;visibility:visible;fill:#bebebe;fill-opacity:1;stroke:none;stroke-width:2;marker:none;enable-background:accumulate" id="path11507" d="M 6.99999,0.9999 V 6.5624 L 5.71874,5.2812 C 5.53058,5.093 5.26529,4.9999 4.99999,4.9999 h -1 v 1 C 4,6.2652 4.09309,6.5305 4.28124,6.7187 l 3,3 0.28125,0.2812 h 0.875 l 0.28125,-0.2812 3,-3 c 0.18819,-0.1882 0.28124,-0.4535 0.28125,-0.7188 v -1 h -1 c -0.2653,0 -0.53059,0.093 -0.71875,0.2813 L 8.99999,6.5624 V 0.9999 Z"/><path style="color:#000;display:inline;overflow:visible;visibility:visible;fill:#bebebe;fill-opacity:1;fill-rule:evenodd;stroke:none;stroke-width:1;marker:none;enable-background:accumulate" id="path11509" d="M 3,9 V 11 11.502 14 a 0.9999947,0.9999947 0 0 0 0.9727,0.998 v 0 H 12 a 0.9999947,0.9999947 0 0 0 1,-1 v -3 -2 h -2 v 2 H 5 v -2 z m 3.4941,3 h 3 c 0.277,0 0.5,0.223 0.5,0.5 0,0.277 -0.223,0.5 -0.5,0.5 h -3 c -0.277,0 -0.5,-0.223 -0.5,-0.5 0,-0.277 0.223,-0.5 0.5,-0.5 z"/></svg>