<svg xmlns="http://www.w3.org/2000/svg" xmlns:xlink="http://www.w3.org/1999/xlink" width="128" height="128" version="1.1" viewBox="0 0 128 128"><g id="surface818"><path style="stroke:none;fill-rule:nonzero;fill:#865e3c;fill-opacity:1" d="M 28.722656 44 L 99.277344 44 C 104.09375 44 108 47.90625 108 52.722656 L 108 111.277344 C 108 116.09375 104.09375 120 99.277344 120 L 28.722656 120 C 23.90625 120 20 116.09375 20 111.277344 L 20 52.722656 C 20 47.90625 23.90625 44 28.722656 44 Z M 28.722656 44"/><path style="stroke:none;fill-rule:nonzero;fill:#b5835a;fill-opacity:1" d="M 28.722656 16 L 99.277344 16 C 104.09375 16 108 20.0625 108 25.078125 L 108 106.921875 C 108 111.9375 104.09375 116 99.277344 116 L 28.722656 116 C 23.90625 116 20 111.9375 20 106.921875 L 20 25.078125 C 20 20.0625 23.90625 16 28.722656 16 Z M 28.722656 16"/><path style="stroke:none;fill-rule:nonzero;fill:#deddda;fill-opacity:1" d="M 28 78 L 100 78 L 100 108 L 28 108 Z M 28 78"/><path style="stroke:none;fill-rule:nonzero;fill:#fff;fill-opacity:1" d="M 28 22 L 100 22 L 100 104 L 28 104 Z M 28 22"/><path style="fill:none;stroke-width:4;stroke-linecap:butt;stroke-linejoin:miter;stroke:#3d3846;stroke-opacity:1;stroke-miterlimit:4" d="M 32.000008 219.999994 L 38.000008 225.999994 L 48.000008 215.999994" transform="matrix(1,0,0,1,7.999992,-155.999994)"/><path style="stroke:none;fill-rule:nonzero;fill:#c0bfbc;fill-opacity:1" d="M 64 40 L 88 40 L 88 44 L 64 44 Z M 64 40"/><path style="stroke:none;fill-rule:nonzero;fill:#c0bfbc;fill-opacity:1" d="M 64 64 L 82 64 L 82 68 L 64 68 Z M 64 64"/><path style="fill:none;stroke-width:4;stroke-linecap:butt;stroke-linejoin:miter;stroke:#3d3846;stroke-opacity:1;stroke-miterlimit:4" d="M 32.000008 217.999995 L 38.000008 223.999995 L 48.000008 213.999995" transform="matrix(1,0,0,1,7.999992,-177.999995)"/><path style="fill:none;stroke-width:4;stroke-linecap:butt;stroke-linejoin:miter;stroke:#3d3846;stroke-opacity:1;stroke-miterlimit:4" d="M 32.000008 219.999996 L 38.000008 225.999996 L 48.000008 215.999996" transform="matrix(1,0,0,1,7.999992,-131.999996)"/><path style="stroke:none;fill-rule:nonzero;fill:#c0bfbc;fill-opacity:1" d="M 64 88 L 88 88 L 88 92 L 64 92 Z M 64 88"/><path style="stroke:none;fill-rule:nonzero;fill:#9a9996;fill-opacity:1" d="M 44 12 C 41.785156 12 40 13.785156 40 16 L 40 24 L 88 24 L 88 16 C 88 13.785156 86.195312 11.6875 84 12 L 70 12 L 64 20 L 58 12 Z M 44 12"/><path style="fill:none;stroke-width:4;stroke-linecap:butt;stroke-linejoin:round;stroke:#9a9996;stroke-opacity:1;stroke-miterlimit:4" d="M 70 184 C 70 187.3125 67.3125 190 64 190 C 60.6875 190 58 187.3125 58 184 C 58 180.6875 60.6875 178 64 178 C 67.3125 178 70 180.6875 70 184 Z M 70 184" transform="matrix(1,0,0,1,0,-172)"/><path style="stroke:none;fill-rule:nonzero;fill:#77767b;fill-opacity:1" d="M 40 24 L 88 24 L 88 28 L 40 28 Z M 40 24"/></g></svg>